HIERARCHY
ROOT RootJoint
{
    OFFSET   0.000000   0.000000   0.000000
    CHANNELS 6 Xposition Yposition Zposition Xrotation Yrotation Zrotation
    JOINT pelvis_lowerback
    {
        OFFSET   0.000000   0.093605   0.000000
        CHANNELS 3 Xrotation Yrotation Zrotation
        JOINT lowerback_torso
        {
            OFFSET   0.000000   0.100000   0.000000
            CHANNELS 3 Xrotation Yrotation Zrotation
            JOINT torso_head
            {
                OFFSET   0.000000   0.282350   0.000000
                CHANNELS 3 Xrotation Yrotation Zrotation
                End Site
                {
                    OFFSET   0.000000   0.192650   0.000000
                }
            }
            JOINT rTorso_Clavicle
            {
                OFFSET  -0.001000   0.157500   0.000000
                CHANNELS 3 Xrotation Yrotation Zrotation
                JOINT rShoulder
                {
                    OFFSET  -0.117647   0.000000   0.000000
                    CHANNELS 3 Xrotation Yrotation Zrotation
                    JOINT rElbow
                    {
                        OFFSET  -0.245000   0.000000   0.000000
                        CHANNELS 3 Xrotation Yrotation Zrotation
                        JOINT rWrist
                        {
                            OFFSET  -0.240000   0.000000   0.000000
                            CHANNELS 3 Xrotation Yrotation Zrotation
                            End Site
                            {
                                OFFSET  -0.116353  -0.002500   0.000000
                            }
                        }
                    }
                }
            }
            JOINT lTorso_Clavicle
            {
                OFFSET   0.001000   0.157500   0.000000
                CHANNELS 3 Xrotation Yrotation Zrotation
                JOINT lShoulder
                {
                    OFFSET   0.117647   0.000000   0.000000
                    CHANNELS 3 Xrotation Yrotation Zrotation
                    JOINT lElbow
                    {
                        OFFSET   0.245000   0.000000   0.000000
                        CHANNELS 3 Xrotation Yrotation Zrotation
                        JOINT lWrist
                        {
                            OFFSET   0.240000   0.000000   0.000000
                            CHANNELS 3 Xrotation Yrotation Zrotation
                            End Site
                            {
                                OFFSET   0.116353  -0.002500   0.000000
                            }
                        }
                    }
                }
            }
        }
    }
    JOINT rHip
    {
        OFFSET  -0.100000  -0.051395   0.000000
        CHANNELS 3 Xrotation Yrotation Zrotation
        JOINT rKnee
        {
            OFFSET   0.000000  -0.410000   0.000000
            CHANNELS 3 Xrotation Yrotation Zrotation
            JOINT rAnkle
            {
                OFFSET   0.000000  -0.390000   0.000000
                CHANNELS 3 Xrotation Yrotation Zrotation
                JOINT rToeJoint
                {
                    OFFSET   0.000000  -0.050000   0.130000
                    CHANNELS 3 Xrotation Yrotation Zrotation
                    End Site
                    {
                        OFFSET  -0.010000   0.002000   0.060000
                    }
                }
            }
        }
    }
    JOINT lHip
    {
        OFFSET   0.100000  -0.051395   0.000000
        CHANNELS 3 Xrotation Yrotation Zrotation
        JOINT lKnee
        {
            OFFSET   0.000000  -0.410000   0.000000
            CHANNELS 3 Xrotation Yrotation Zrotation
            JOINT lAnkle
            {
                OFFSET   0.000000  -0.390000   0.000000
                CHANNELS 3 Xrotation Yrotation Zrotation
                JOINT lToeJoint
                {
                    OFFSET   0.000000  -0.050000   0.130000
                    CHANNELS 3 Xrotation Yrotation Zrotation
                    End Site
                    {
                        OFFSET   0.010000   0.002000   0.060000
                    }
                }
            }
        }
    }
}
MOTION
Frames: 8
Frame Time:   0.008333
 -2.368224   0.890359   4.783874  -2.242416  -1.556613   2.298542   8.133788  -3.626949  -2.919875   2.651753  -4.272717   1.772033   0.334632   3.036448   0.095830   4.288165  -5.644135  11.546686  11.870653   7.066373  47.312125  -0.000040  10.577434  -0.000122   7.657992   2.545749   5.047146  -1.598121  -1.334942  -6.806260  -4.179019 -15.882727 -36.681914  -0.005173 -29.663647  -0.000405   7.943348  -6.051126   0.514731 -25.622531   8.700220  -5.387527  22.651397  -0.010117  -0.024708  -8.338731   0.475592   4.441474  -2.525077   0.000030   0.002124  11.537856  -1.767873  -3.743173  11.839235  -0.000051  -0.000172 -18.599389  -1.700456   2.790343  -4.470569  -0.002714  -0.000096
 -2.369398   0.889399   4.792846  -2.357064  -1.260011   2.244401   8.083243  -3.701099  -2.850223   2.795603  -4.314709   1.863941   0.361280   3.028161   0.010134   4.375715  -5.723392  11.640515  11.996237   6.937357  47.168361  -0.000051  10.499824  -0.000018   7.718086   2.590351   5.100740  -1.571333  -1.417862  -6.836226  -4.133449 -16.007917 -36.720769  -0.003974 -30.100895  -0.000004   8.046503  -6.056493   0.567728 -25.504573   8.676883  -5.375456  21.724384  -0.007830  -0.022224  -8.101317   0.503109   4.407097  -2.370705   0.000022   0.002195  12.121966  -1.842324  -3.518417  12.077474  -0.000137   0.000391 -18.634517  -1.883748   2.422361  -5.394175  -0.004277  -0.000402
 -2.370644   0.888513   4.802064  -2.475342  -0.942728   2.182962   8.001780  -3.767457  -2.769737   2.944195  -4.356031   1.959110   0.389571   3.019489  -0.064823   4.479450  -5.815704  11.722748  12.131080   6.800891  47.029164  -0.000058  10.418090   0.000074   7.782137   2.599115   5.159343  -1.518586  -1.483202  -6.896319  -4.073737 -16.117980 -36.788831  -0.002923 -30.505839   0.000146   8.148159  -6.061950   0.539225 -25.321188   8.636907  -5.324424  20.976339  -0.005779  -0.019924  -7.870875   0.528023   4.374994  -2.204508  -0.000060   0.002288  12.689056  -1.921908  -3.273815  12.371897  -0.000230   0.000993 -18.593927  -2.071392   2.091206  -6.510819  -0.005606  -0.000795
 -2.371950   0.887623   4.811415  -2.565670  -0.626527   2.127514   7.894398  -3.822805  -2.692358   3.072389  -4.391335   2.046833   0.411761   3.011752  -0.131466   4.588643  -5.913550  11.794559  12.266368   6.664311  46.898732  -0.000056  10.337255   0.000149   7.845832   2.583574   5.222853  -1.452550  -1.531015  -6.967161  -4.006735 -16.212433 -36.865848  -0.002098 -30.880234   0.000126   8.244935  -6.057560   0.465948 -25.107037   8.592081  -5.248531  20.317921  -0.003995  -0.017859  -7.653873   0.551751   4.345246  -2.049165  -0.000174   0.002316  13.222883  -1.998923  -3.027298  12.682193  -0.000317   0.001510 -18.501499  -2.257675   1.795107  -7.741368  -0.006527  -0.001213
 -2.373297   0.886734   4.820875  -2.627800  -0.316494   2.093021   7.770518  -3.868640  -2.630183   3.180567  -4.420187   2.121402   0.428580   3.004677  -0.192787   4.696849  -6.011215  11.860734  12.397244   6.531868  46.776864  -0.000048  10.259337   0.000210   7.908057   2.554671   5.285752  -1.380154  -1.565483  -7.041890  -3.936436 -16.293498 -36.943526  -0.001475 -31.226227   0.000014   8.337204  -6.039960   0.373858 -24.865564   8.544744  -5.166768  19.723415  -0.002470  -0.015988  -7.450548   0.574113   4.317528  -1.905704  -0.000299   0.002279  13.717339  -2.056170  -2.799499  13.016506  -0.000381   0.002019 -18.337739  -2.424188   1.521638  -6.770301  -0.003785  -0.000225
 -2.374698   0.885716   4.830350  -2.645670  -0.008468   2.057714   7.632868  -3.906556  -2.566039   3.265632  -4.442972   2.191268   0.440312   2.998129  -0.249411   4.799817  -6.104746  11.913653  12.520888   6.406122  46.661152  -0.000031  10.186349   0.000261   7.967647   2.525307   5.348437  -1.308164  -1.591732  -7.108859  -3.867533 -16.366135 -37.017197  -0.001034 -31.548408  -0.000120   8.425079  -6.017861   0.275184 -24.628556   8.495935  -5.062009  19.181723  -0.001203  -0.014359  -7.260329   0.595082   4.291776  -1.774237  -0.000417   0.002209  14.181320  -2.122602  -2.561669  13.321919  -0.000440   0.002322 -18.191156  -2.600723   1.282782  -8.575453  -0.005192  -0.001153
 -2.376130   0.884562   4.839820  -2.624205   0.290285   2.035590   7.489915  -3.935347  -2.512019   3.332647  -4.458696   2.253136   0.448562   2.992128  -0.302224   4.894606  -6.191224  11.958668  12.635330   6.288769  46.550440  -0.000011  10.118600   0.000306   8.024596   2.498203   5.403802  -1.239507  -1.612131  -7.168223  -3.801615 -16.431342 -37.083459  -0.000721 -31.848148  -0.000243   8.509140  -5.991696   0.181985 -24.393974   8.448250  -4.952059  18.684124  -0.000168  -0.012891  -7.082508   0.614882   4.267803  -1.653445  -0.000520   0.002106  14.613670  -2.190819  -2.332765  13.608293  -0.000489   0.002496 -18.050190  -2.776922   1.062731 -10.270696  -0.005896  -0.001807
 -2.377872   0.884183   4.849730  -2.685222   0.607095   1.993656   7.338688  -4.009385  -2.478026   3.477175  -4.485897   2.367791   0.488875   2.910664  -0.378209   5.006061  -6.225813  12.063880  12.718715   6.174197  46.387579  -0.000008  10.011111   0.000396   8.098193   2.462908   5.466965  -1.158362  -1.624111  -7.288233  -3.579131 -16.388164 -37.233605  -0.000218 -32.011821  -0.000167   8.621783  -6.062307   0.224896 -24.226969   8.258384  -4.697146  19.070699  -0.001233  -0.009512  -6.588015   0.559058   4.016593  -1.436133  -0.000589   0.001817  14.975962  -2.287476  -2.075663  14.176866  -0.000708   0.003170 -17.519243  -2.900574   0.993506 -12.703399  -0.004441  -0.002820
